<?xml version="1.0" standalone="no"?>
<!DOCTYPE svg PUBLIC "-//W3C//DTD SVG 20010904//EN"
 "http://www.w3.org/TR/2001/REC-SVG-20010904/DTD/svg10.dtd">
<svg version="1.0" xmlns="http://www.w3.org/2000/svg"
 width="393.000000pt" height="393.000000pt" viewBox="0 0 393.000000 393.000000"
 preserveAspectRatio="xMidYMid meet">
<metadata>
Created by potrace 1.14, written by Peter Selinger 2001-2017
</metadata>
<g transform="translate(0.000000,393.000000) scale(0.100000,-0.100000)"
fill="#000000" stroke="none">
<path d="M1835 3914 c-842 -69 -1527 -622 -1757 -1419 -96 -333 -97 -720 -2
-1055 281 -988 1281 -1594 2288 -1385 566 117 1053 479 1330 988 100 182 178
418 212 635 23 147 23 421 0 571 -131 854 -797 1517 -1652 1645 -104 16 -334
27 -419 20z m206 -522 c57 -59 146 -163 197 -230 85 -112 91 -122 65 -116 -88
21 -378 95 -379 97 0 1 -6 23 -13 49 -21 88 -8 308 19 308 4 0 54 -48 111
-108z m-643 -8 c107 -44 300 -144 407 -212 87 -55 170 -83 642 -221 l72 -22
49 -87 c27 -48 72 -134 100 -192 79 -164 121 -204 311 -299 86 -43 168 -81
182 -84 15 -4 37 -15 50 -25 l23 -19 -30 -74 c-25 -64 -36 -78 -76 -105 -26
-18 -78 -41 -117 -53 -65 -20 -70 -23 -68 -48 3 -37 -31 -53 -114 -53 -85 0
-182 26 -349 94 l-135 55 -30 -23 c-60 -46 -70 -70 -70 -160 0 -74 3 -89 37
-157 47 -95 122 -194 193 -255 30 -26 55 -51 55 -55 0 -3 -28 -19 -62 -35 -51
-22 -81 -29 -155 -32 l-93 -4 0 -28 c0 -40 62 -155 125 -233 l55 -67 -42 6
c-136 18 -222 46 -311 102 -22 13 -40 22 -42 20 -8 -8 17 -106 39 -155 29 -63
99 -156 152 -203 l38 -33 -79 7 c-271 25 -355 156 -326 509 6 83 14 153 16
155 2 2 19 -13 37 -34 106 -125 242 -224 309 -224 l28 0 -39 73 c-41 76 -64
150 -74 232 l-6 49 32 -31 c63 -59 137 -81 186 -54 20 10 18 16 -49 148 -80
159 -114 271 -104 348 12 95 61 162 154 210 52 27 119 15 255 -44 94 -41 128
-51 172 -51 l55 0 -22 29 c-27 37 -22 78 14 105 25 18 41 21 129 19 91 -1 98
0 80 13 -86 60 -184 69 -297 28 -121 -45 -147 -49 -226 -35 -39 7 -101 28
-138 47 -62 31 -75 43 -145 138 -42 57 -98 120 -123 140 -65 51 -155 77 -283
82 l-105 4 75 -25 c41 -13 82 -25 89 -25 27 0 -3 -16 -64 -34 -95 -29 -210
-90 -306 -162 -94 -71 -110 -94 -36 -51 49 29 184 77 216 77 16 0 8 -11 -35
-55 -53 -53 -103 -141 -119 -209 -5 -25 9 -14 87 68 91 94 95 97 133 94 35 -3
42 -8 59 -42 17 -36 18 -47 8 -126 -22 -164 -11 -210 51 -210 25 0 50 15 109
65 43 36 80 65 83 65 3 0 -3 -12 -13 -27 -11 -16 -40 -62 -65 -103 -50 -82
-70 -104 -105 -115 -19 -6 -32 3 -76 47 -62 62 -96 140 -96 221 l0 52 -111
-110 c-121 -120 -190 -217 -267 -370 -45 -92 -142 -324 -142 -342 0 -4 43 35
95 87 l96 95 -16 -45 c-28 -78 -55 -222 -55 -296 0 -80 26 -176 63 -238 30
-48 131 -151 216 -218 84 -66 120 -108 138 -160 7 -22 12 -42 10 -44 -13 -13
-296 123 -392 189 -337 228 -532 537 -600 949 -17 102 -32 338 -22 338 4 0 21
-9 39 -20 58 -35 107 -22 153 40 15 19 69 118 120 220 52 102 117 219 145 260
l49 75 -52 3 c-82 4 -87 10 -30 42 30 17 86 68 134 122 109 120 135 146 189
190 l45 36 -26 29 c-74 79 -130 219 -148 368 -12 102 -13 125 -5 125 3 0 44
-16 92 -36z"/>
</g>
</svg>
